<svg xmlns="http://www.w3.org/2000/svg" xmlns:xlink="http://www.w3.org/1999/xlink" width="48" height="48" id="ecommerce">
  <defs>
    <linearGradient xlink:href="#a" id="b" x1="1073.403" x2="1097.116" y1="516.451" y2="544.308" gradientTransform="translate(-1458.872 831.363)scale(1.53785)" gradientUnits="userSpaceOnUse"></linearGradient>
    <linearGradient id="a">
      <stop offset="0" stop-color="#16ff6a"></stop>
      <stop offset="1" stop-color="#0090a5"></stop>
    </linearGradient>
  </defs>
  <g transform="translate(-185 -1624.382)">
    <rect width="48" height="48" x="185" y="1624.382" fill="url(#b)" rx="10.144" ry="10.144"></rect>
    <path fill="#fff" d="M210.922 1633.851v1.063a.517.517 0 0 1-.406.5 5.861 5.861 0 0 0-1.813.75.515.515 0 0 1-.594-.062l-.78-.75-1.25 1.25.75.78a.516.516 0 0 1 .062.626 5.698 5.698 0 0 0-.75 1.781.517.517 0 0 1-.5.406h-1.063v1.187h14.5a.5.5 0 0 1 0-.03v-1.157h-1.062a.52.52 0 0 1-.5-.406 5.862 5.862 0 0 0-.75-1.812.514.514 0 0 1 .062-.594l.75-.781-1.25-1.25-.781.75a.515.515 0 0 1-.625.062 5.698 5.698 0 0 0-1.781-.75.517.517 0 0 1-.407-.5v-1.063zm.906 3.25c2.203 0 4 1.797 4 4 0 .086-.026.166-.031.25h-1c.007-.084.031-.164.031-.25 0-1.663-1.337-3-3-3s-3 1.337-3 3c0 .086.024.166.031.25h-1c-.005-.084-.03-.164-.03-.25 0-2.203 1.796-4 4-4zm-15.25 1.281v1h3.469l3.469 14.594a.501.501 0 0 0 .062.125v.031c.01.022-.012.043 0 .062l.875 3.781h.026v.01h14.1v-1h-13.323l-.615-2.6-.25-1h13.687l.625-2h-6.125v-1h6.406l.625-2h-9.03v-1h9.312l.625-2h-11.938v-1h12.25l.594-2h-19.625l-.25-1-.625-2.624c-.083-.31-.219-.376-.656-.375h-3.063zm8.719 20.438a2.276 2.276 0 0 0-2.281 2.281 2.276 2.276 0 0 0 2.28 2.281 2.276 2.276 0 0 0 2.282-2.281 2.276 2.276 0 0 0-2.281-2.281zm11 0a2.276 2.276 0 0 0-2.281 2.281 2.276 2.276 0 0 0 2.28 2.281 2.276 2.276 0 0 0 2.282-2.281 2.276 2.276 0 0 0-2.281-2.281zm-11 .75c.822 0 1.5.677 1.5 1.5 0 .822-.678 1.5-1.5 1.5-.823 0-1.5-.678-1.5-1.5 0-.823.677-1.5 1.5-1.5zm11 0c.822 0 1.5.677 1.5 1.5 0 .822-.678 1.5-1.5 1.5-.823 0-1.5-.678-1.5-1.5 0-.823.677-1.5 1.5-1.5zm-11 1c-.282 0-.5.218-.5.5 0 .282.218.5.5.5.282 0 .5-.218.5-.5 0-.282-.218-.5-.5-.5zm11 0c-.282 0-.5.218-.5.5 0 .282.218.5.5.5.282 0 .5-.218.5-.5 0-.282-.218-.5-.5-.5z" color="#000" font-family="Sans" font-weight="400" overflow="visible" style="line-height:normal;-inkscape-font-specification:Sans;text-indent:0;text-align:start;text-decoration-line:none;text-transform:none;block-progression:tb;marker:none"></path>
  </g>
</svg>
