<svg width="24" height="25" viewBox="0 0 24 25" fill="none" xmlns="http://www.w3.org/2000/svg">
<g clip-path="url(#clip0_6923_4088)">
<path d="M23 11.5C22.7348 11.5 22.4805 11.6054 22.2929 11.7929C22.1054 11.9804 22 12.2348 22 12.5C22.0082 14.8253 21.2084 17.0812 19.7376 18.8822C18.2667 20.6831 16.216 21.9173 13.9359 22.3738C11.6559 22.8303 9.28807 22.4807 7.23721 21.3849C5.18636 20.289 3.57977 18.5148 2.69206 16.3657C1.80435 14.2165 1.69064 11.8257 2.37035 9.60201C3.05006 7.37828 4.48099 5.45966 6.41858 4.17407C8.35616 2.88849 10.6801 2.31575 12.9932 2.55377C15.3062 2.79179 17.4648 3.82578 19.1 5.479C19.0671 5.48797 19.0337 5.49498 19 5.5H16C15.7348 5.5 15.4805 5.60536 15.2929 5.79289C15.1054 5.98043 15 6.23478 15 6.5C15 6.76522 15.1054 7.01957 15.2929 7.20711C15.4805 7.39464 15.7348 7.5 16 7.5H19C19.7957 7.5 20.5587 7.18393 21.1213 6.62132C21.684 6.05871 22 5.29565 22 4.5V1.5C22 1.23478 21.8947 0.98043 21.7071 0.792893C21.5196 0.605357 21.2652 0.5 21 0.5C20.7348 0.5 20.4805 0.605357 20.2929 0.792893C20.1054 0.98043 20 1.23478 20 1.5V3.565C17.9526 1.73453 15.3389 0.662166 12.5959 0.527103C9.85281 0.392039 7.14648 1.20246 4.92911 2.82293C2.71174 4.44341 1.11766 6.77578 0.413253 9.4303C-0.291156 12.0848 -0.0632278 14.9007 1.05895 17.4074C2.18113 19.914 4.12958 21.9596 6.57871 23.2024C9.02784 24.4451 11.8293 24.8097 14.5149 24.2353C17.2006 23.6608 19.6077 22.182 21.3341 20.0461C23.0605 17.9101 24.0015 15.2464 24 12.5C24 12.2348 23.8947 11.9804 23.7071 11.7929C23.5196 11.6054 23.2652 11.5 23 11.5Z" fill="#404040"/>
<path d="M12.0002 6.5C11.7349 6.5 11.4806 6.60536 11.293 6.79289C11.1055 6.98043 11.0002 7.23478 11.0002 7.5V12.5C11.0002 12.7652 11.1056 13.0195 11.2932 13.207L14.2932 16.207C14.4818 16.3892 14.7344 16.49 14.9966 16.4877C15.2587 16.4854 15.5096 16.3802 15.695 16.1948C15.8804 16.0094 15.9855 15.7586 15.9878 15.4964C15.9901 15.2342 15.8893 14.9816 15.7072 14.793L13.0002 12.086V7.5C13.0002 7.23478 12.8948 6.98043 12.7073 6.79289C12.5197 6.60536 12.2654 6.5 12.0002 6.5Z" fill="#404040"/>
</g>
<defs>
<clipPath id="clip0_6923_4088">
<rect width="24" height="24" fill="white" transform="translate(0 0.5)"/>
</clipPath>
</defs>
</svg>
