<svg xmlns="http://www.w3.org/2000/svg" viewBox="0 0 512 512" id="gift">
  <path fill="#2f7db9" d="M362.55 67.18H341.67a25.22 25.22 0 00-2.51-13.89A25.8 25.8 0 00304.71 41.7c-4.59 2.3-12 7.73-19.62 14.72a42.92 42.92 0 018 10.76h-74a36.44 36.44 0 015.33-7.94C216 50.89 207.21 44.31 201.89 41.7a25.7 25.7 0 00-34.34 11.59A24.82 24.82 0 00165 67.18h-21A46.53 46.53 0 01211.18 23c8.87 4.38 20.57 13.67 30.69 24.11a43.48 43.48 0 0124.22-1.25C275.9 36 287 27.19 295.53 23a46.57 46.57 0 0162.32 21A45.69 45.69 0 01362.55 67.18zM114.62 182H223.39V354.56H125.06a10.47 10.47 0 01-10.44-10.44z"></path>
  <rect width="23.38" height="172.56" x="244.27" y="182" fill="#2f7db9"></rect>
  <path fill="#2f7db9" d="M397.31 182V344.12a10.47 10.47 0 01-10.44 10.44H288.53V182zM223.39 88.05v73.08H111.28a10.34 10.34 0 01-10.44-10.44V98.49a10.4 10.4 0 0110.44-10.44z"></path>
  <rect width="23.38" height="73.07" x="244.27" y="88.05" fill="#2f7db9"></rect>
  <path fill="#2f7db9" d="M411.19,98.49v52.2a10.41,10.41,0,0,1-10.44,10.44H288.53V88.05H400.75A10.47,10.47,0,0,1,411.19,98.49Z"></path>
  <path fill="#3c4752" d="M470.69 128.66V382.22a24.1 24.1 0 01-24.11 24H65.35a24 24 0 01-24-24V128.66a24.08 24.08 0 0124-24H80v46a31.17 31.17 0 0013.78 25.89V344.12a31.41 31.41 0 0031.32 31.32H386.87a31.4 31.4 0 0031.31-31.32V176.79a31.66 31.66 0 0013.89-26.1v-46h14.51A24.17 24.17 0 01470.69 128.66zM503.78 455.09l-.62.94-19.32 24.74a28.71 28.71 0 01-23.9 13H52.09a28.65 28.65 0 01-24-13L8.87 456c-4.17-6.37-4.38-13.47-1.14-19.32a18.39 18.39 0 0116.07-9.49H217a10.24 10.24 0 017.41 3l14.09 14.09h34.24l16-14.5a10.39 10.39 0 017-2.61H488.23a18.27 18.27 0 0115.55 27.87z"></path>
</svg>
