<svg width="24" height="24" viewBox="0 0 24 24" fill="none" xmlns="http://www.w3.org/2000/svg">
<g clip-path="url(#clip0_141_5090)">
<path d="M1.17114 14.8286L5.05014 18.7076C5.23874 18.8897 5.49134 18.9905 5.75354 18.9882C6.01574 18.986 6.26655 18.8808 6.45196 18.6954C6.63737 18.51 6.74254 18.2592 6.74481 17.997C6.74709 17.7348 6.6463 17.4822 6.46414 17.2936L2.58514 13.4146C2.46989 13.297 2.36917 13.1661 2.28514 13.0246C2.30014 13.0246 2.31214 13.0326 2.32714 13.0326L18.0111 13.0006C18.2764 13.0006 18.5307 12.8952 18.7182 12.7077C18.9058 12.5201 19.0111 12.2658 19.0111 12.0006C19.0111 11.7354 18.9058 11.481 18.7182 11.2935C18.5307 11.1059 18.2764 11.0006 18.0111 11.0006L2.33314 11.0326C2.30514 11.0326 2.28214 11.0466 2.25514 11.0486C2.34384 10.8794 2.45632 10.7238 2.58914 10.5866L6.46814 6.70757C6.56365 6.61532 6.63983 6.50498 6.69224 6.38297C6.74465 6.26097 6.77224 6.12975 6.77339 5.99697C6.77454 5.86419 6.74924 5.73251 6.69896 5.60962C6.64868 5.48672 6.57443 5.37507 6.48053 5.28118C6.38664 5.18728 6.27499 5.11303 6.15209 5.06275C6.0292 5.01247 5.89752 4.98717 5.76474 4.98832C5.63196 4.98947 5.50074 5.01706 5.37873 5.06947C5.25673 5.12188 5.14639 5.19806 5.05414 5.29357L1.17514 9.17257C0.425255 9.92268 0.00399399 10.9399 0.00399399 12.0006C0.00399399 13.0612 0.425255 14.0785 1.17514 14.8286H1.17114Z" fill="#AF0000"/>
<path d="M17 2H19C19.7956 2 20.5587 2.31607 21.1213 2.87868C21.6839 3.44129 22 4.20435 22 5L22 19C22 19.7956 21.6839 20.5587 21.1213 21.1213C20.5587 21.6839 19.7956 22 19 22H17C16.7348 22 16.4804 22.1054 16.2929 22.2929C16.1054 22.4804 16 22.7348 16 23C16 23.2652 16.1054 23.5196 16.2929 23.7071C16.4804 23.8946 16.7348 24 17 24H19C20.3256 23.9984 21.5964 23.4711 22.5338 22.5338C23.4711 21.5964 23.9984 20.3256 24 19L24 5C23.9984 3.6744 23.4711 2.40356 22.5338 1.46622C21.5964 0.528881 20.3256 0.00158691 19 0H17C16.7348 0 16.4804 0.105356 16.2929 0.292892C16.1054 0.480429 16 0.734783 16 1C16 1.26522 16.1054 1.51957 16.2929 1.70711C16.4804 1.89464 16.7348 2 17 2Z" fill="#AF0000"/>
</g>
<defs>
<clipPath id="clip0_141_5090">
<rect width="24" height="24" fill="white" transform="matrix(-1 0 0 -1 24 24)"/>
</clipPath>
</defs>
</svg>
