<svg width="20" height="24" viewBox="0 0 20 24" fill="none" xmlns="http://www.w3.org/2000/svg">
<path d="M16.9999 8.424V7C16.9999 5.14348 16.2624 3.36301 14.9497 2.05025C13.6369 0.737498 11.8565 0 9.99994 0C8.14342 0 6.36295 0.737498 5.05019 2.05025C3.73744 3.36301 2.99994 5.14348 2.99994 7V8.424C2.1093 8.81271 1.35123 9.45252 0.818438 10.2652C0.285644 11.0779 0.00121734 12.0282 -6.10352e-05 13V19C0.00152682 20.3256 0.528821 21.5964 1.46616 22.5338C2.4035 23.4711 3.67434 23.9984 4.99994 24H14.9999C16.3255 23.9984 17.5964 23.4711 18.5337 22.5338C19.4711 21.5964 19.9984 20.3256 19.9999 19V13C19.9987 12.0282 19.7142 11.0779 19.1814 10.2652C18.6486 9.45252 17.8906 8.81271 16.9999 8.424ZM4.99994 7C4.99994 5.67392 5.52672 4.40215 6.46441 3.46447C7.40209 2.52678 8.67386 2 9.99994 2C11.326 2 12.5978 2.52678 13.5355 3.46447C14.4732 4.40215 14.9999 5.67392 14.9999 7V8H4.99994V7ZM17.9999 19C17.9999 19.7956 17.6839 20.5587 17.1213 21.1213C16.5587 21.6839 15.7956 22 14.9999 22H4.99994C4.20429 22 3.44123 21.6839 2.87862 21.1213C2.31601 20.5587 1.99994 19.7956 1.99994 19V13C1.99994 12.2044 2.31601 11.4413 2.87862 10.8787C3.44123 10.3161 4.20429 10 4.99994 10H14.9999C15.7956 10 16.5587 10.3161 17.1213 10.8787C17.6839 11.4413 17.9999 12.2044 17.9999 13V19Z" fill="#0C0C0C"/>
</svg>
