<svg width="61" height="60" viewBox="0 0 61 60" fill="none" xmlns="http://www.w3.org/2000/svg">
    <g clip-path="url(#clip0_141_4910)">
        <path
            d="M30.5 34.001C32.4778 34.001 34.4112 33.4145 36.0557 32.3157C37.7002 31.2169 38.9819 29.6551 39.7388 27.8278C40.4957 26.0006 40.6937 23.9899 40.3079 22.0501C39.922 20.1103 38.9696 18.3284 37.5711 16.9299C36.1725 15.5314 34.3907 14.579 32.4509 14.1931C30.5111 13.8073 28.5004 14.0053 26.6732 14.7622C24.8459 15.5191 23.2841 16.8008 22.1853 18.4453C21.0865 20.0898 20.5 22.0232 20.5 24.001C20.5026 26.6523 21.5571 29.1943 23.4319 31.0691C25.3066 32.9439 27.8486 33.9983 30.5 34.001ZM30.5 17.3343C31.8185 17.3343 33.1075 17.7253 34.2038 18.4579C35.3001 19.1904 36.1546 20.2316 36.6592 21.4498C37.1638 22.6679 37.2958 24.0084 37.0386 25.3016C36.7813 26.5948 36.1464 27.7827 35.214 28.715C34.2817 29.6474 33.0938 30.2823 31.8006 30.5396C30.5074 30.7968 29.167 30.6648 27.9488 30.1602C26.7306 29.6556 25.6894 28.8011 24.9569 27.7048C24.2243 26.6085 23.8333 25.3195 23.8333 24.001C23.8333 22.2329 24.5357 20.5372 25.786 19.2869C27.0362 18.0367 28.7319 17.3343 30.5 17.3343V17.3343Z"
            fill="#07298B" />
        <path
            d="M30.5 37.335C26.5231 37.3394 22.7104 38.9211 19.8983 41.7332C17.0862 44.5453 15.5044 48.3581 15.5 52.335C15.5 52.777 15.6756 53.2009 15.9882 53.5135C16.3007 53.826 16.7246 54.0016 17.1667 54.0016C17.6087 54.0016 18.0326 53.826 18.3452 53.5135C18.6577 53.2009 18.8333 52.777 18.8333 52.335C18.8333 49.2408 20.0625 46.2733 22.2504 44.0854C24.4383 41.8975 27.4058 40.6683 30.5 40.6683C33.5942 40.6683 36.5617 41.8975 38.7496 44.0854C40.9375 46.2733 42.1667 49.2408 42.1667 52.335C42.1667 52.777 42.3423 53.2009 42.6548 53.5135C42.9674 53.826 43.3913 54.0016 43.8333 54.0016C44.2754 54.0016 44.6993 53.826 45.0118 53.5135C45.3244 53.2009 45.5 52.777 45.5 52.335C45.4956 48.3581 43.9138 44.5453 41.1017 41.7332C38.2896 38.9211 34.4769 37.3394 30.5 37.335V37.335Z"
            fill="#07298B" />
    </g>
    <circle cx="30.5" cy="30" r="28" stroke="#07298B" stroke-width="4" />
    <defs>
        <clipPath id="clip0_141_4910">
            <rect width="40" height="40" fill="white" transform="translate(10.5 14.001)" />
        </clipPath>
    </defs>
</svg>