<svg xmlns="http://www.w3.org/2000/svg" xml:space="preserve" viewBox="0 0 64 64" id="online-shop">
  <path fill="#4D4D4D" d="M61 15v34a2 2 0 0 1-2 2H5a2 2 0 0 1-2-2V15a2 2 0 0 1 2-2h54a2 2 0 0 1 2 2z"></path>
  <path fill="#FFF" d="M7 17h50v30H7z"></path>
  <path fill="#E6E6E6" d="M8 25a6 6 0 0 0 6-6H2a6 6 0 0 0 6 6z"></path>
  <path fill="#D43239" d="M14 19H2V5a2 2 0 0 1 2-2h10v16zM20 25a6 6 0 0 0 6-6H14a6 6 0 0 0 6 6z"></path>
  <path fill="#E6E6E6" d="M14 3h12v16H14zM32 25a6 6 0 0 0 6-6H26a6 6 0 0 0 6 6z"></path>
  <path fill="#D43239" d="M26 3h12v16H26zM44 25a6 6 0 0 0 6-6H38a6 6 0 0 0 6 6z"></path>
  <path fill="#E6E6E6" d="M38 3h12v16H38zM56 25a6 6 0 0 0 6-6H50a6 6 0 0 0 6 6z"></path>
  <path fill="#D43239" d="M62 19H50V3h10a2 2 0 0 1 2 2v14z"></path>
  <path fill="#4D4D4D" d="M62.771 54.362A1.003 1.003 0 0 0 62 54H36.567c-.359 0-.69.192-.869.504L34.845 56h-5.691l-.854-1.496a.997.997 0 0 0-.868-.504H2a1.003 1.003 0 0 0-.983 1.187l1.142 6c.091.472.503.813.983.813h57.716c.48 0 .893-.341.982-.813l1.142-6a1.003 1.003 0 0 0-.211-.825z"></path>
  <path fill="#3EBBDD" d="M40.822 30.43A1.001 1.001 0 0 0 40 30H24.477l-.548-1.372A1.002 1.002 0 0 0 23 28h-4a1 1 0 0 0 0 2h3.323l3.749 9.372A1 1 0 0 0 27 40h10c.417 0 .79-.259.937-.649l3-8a1.004 1.004 0 0 0-.115-.921zM37.807 34h-1.864l.75-2h1.864l-.75 2zm-7.614 0-.75-2h5.114l-.75 2h-3.614zm2.864 2-.75 2h-.614l-.75-2h2.114zm-5.75-4 .75 2h-1.98l-.8-2h2.03zm-.43 4h1.93l.75 2h-1.88l-.8-2zm9.43 2h-1.864l.75-2h1.864l-.75 2zM28 42h2v2h-2zM34 42h2v2h-2z"></path>
  <path fill="#F2F2F2" d="M21.821 43C15.088 43 8.711 41.733 3 39.477V49a2 2 0 0 0 2 2h54a2 2 0 0 0 2-2V23.093C53.628 34.921 38.855 43 21.821 43z" opacity=".8"></path>
  <path fill="#3E3E3E" d="M62 54h-6.938c-4.222 3.241-9.034 5.949-14.288 8h20.084c.48 0 .893-.341.982-.813l1.142-6A1 1 0 0 0 62 54z"></path>
</svg>
