<svg xmlns="http://www.w3.org/2000/svg" viewBox="0 0 64 64" id="shopping-cart">
  <path fill="#30C4C9" d="m17.1 20.9 5.1 17.9 22.3.2c.9 0 1.6-.5 1.9-1.4L52 21l-34.9-.1z"></path>
  <circle cx="30" cy="50" r="4" fill="#F37C78"></circle>
  <path fill="#FFC800" d="M50 46H24c-.4 0-.8-.3-1-.7L13.2 11H8c-.6 0-1-.4-1-1s.4-1 1-1h6c.4 0 .8.3 1 .7L24.8 44H50c.6 0 1 .4 1 1s-.4 1-1 1z"></path>
  <circle cx="45" cy="50" r="4" fill="#F37C78"></circle>
  <path fill="#28A3A7" d="M17 22.8h34.4L49 30l-31.2-3.1z"></path>
  <path fill="#D4A700" d="m19.9 27.1-2.1-.2-.8-4.1h1.7z"></path>
  <path fill="#F2F2F2" d="M35 36c-.6 0-1-.4-1-1V25c0-.6.4-1 1-1s1 .4 1 1v10c0 .6-.4 1-1 1zm4 0c-.1 0-.2 0-.4-.1-.5-.2-.8-.8-.6-1.3l4-10c.2-.5.8-.8 1.3-.6.5.2.8.8.6 1.3l-4 10c-.1.5-.5.7-.9.7zm-8 0c-.4 0-.8-.2-.9-.6l-4-10c-.2-.5 0-1.1.6-1.3.5-.2 1.1 0 1.3.6l4 10c.2.5 0 1.1-.6 1.3H31z"></path>
  <path fill="#F37C78" d="M17 27c-1.7 0-3-1.3-3-3v-3h6v3c0 1.7-1.3 3-3 3z"></path>
  <path fill="#F2F2F2" d="M23 27c-1.7 0-3-1.3-3-3v-3h6v3c0 1.7-1.3 3-3 3z"></path>
  <path fill="#F37C78" d="M29 27c-1.7 0-3-1.3-3-3v-3h6v3c0 1.7-1.3 3-3 3z"></path>
  <path fill="#F2F2F2" d="M35 27c-1.7 0-3-1.3-3-3v-3h6v3c0 1.7-1.3 3-3 3z"></path>
  <path fill="#F37C78" d="M41 27c-1.7 0-3-1.3-3-3v-3h6v3c0 1.7-1.3 3-3 3z"></path>
  <path fill="#F2F2F2" d="M47 27c-1.7 0-3-1.3-3-3v-3h6v3c0 1.7-1.3 3-3 3z"></path>
  <path fill="#F37C78" d="M53 27c-1.7 0-3-1.3-3-3v-3h6v3c0 1.7-1.3 3-3 3zM20 21h-6l6-8h4.3z"></path>
  <path fill="#F2F2F2" d="M26 21h-6l4.3-8h4.3z"></path>
  <path fill="#F37C78" d="M32 21h-6l2.6-8h4.3z"></path>
  <path fill="#F2F2F2" d="M38 21h-6l.9-8h4.2z"></path>
  <path fill="#F37C78" d="M44 21h-6l-.9-8h4.3z"></path>
  <path fill="#F2F2F2" d="M50 21h-6l-2.6-8h4.3z"></path>
  <path fill="#F37C78" d="M56 21h-6l-4.3-8H50z"></path>
</svg>
